<svg id="Layer_1" data-name="Layer 1" xmlns="http://www.w3.org/2000/svg" viewBox="0 0 1000 1000"><defs><style>.cls-1{fill:#e41e26;}</style></defs><path class="cls-1" d="M574.3,442.9c-17.3-22-39.7-34.9-71.2-36.1,3.7,6,5.6,9,7.4,12.1,12.6,22.6,3.6,50.7-19.6,61-22.9,10.2-48.7-1.1-58.1-24.9-1.5-3.8.1-10.9-5.7-11-4.6-.1-6.3,6-8.5,9.9-22.8,40-12.2,91.9,24.4,120,37.6,28.8,89.8,25.6,123.2-7.7C599.2,533,603,479.6,574.3,442.9ZM505,526.4c-8,.2-13.7-4.5-14-13.2s4.3-13.5,13-13.9,12.8,5.1,14.5,12.8C517.8,520.5,513.2,526.2,505,526.4Z"/><path class="cls-1" d="M499.4,366.1c-73.1.3-133.7,61-133.6,134,.2,74.1,60.6,134.1,134.8,133.9A133.24,133.24,0,0,0,633.7,500.3C633.6,425.8,573.6,365.8,499.4,366.1Zm-8.2,251c-62.1-4.3-111.9-60.4-108-121.7,4.2-66,58.8-116.5,121.5-112.5,66.8,4.2,116,59,112.1,124.8C613.2,572,556.1,621.7,491.2,617.1Z"/><path class="cls-1" d="M574.3,442.9c-17.3-22-39.7-34.9-71.2-36.1,3.7,6,5.6,9,7.4,12.1,12.6,22.6,3.6,50.7-19.6,61-22.9,10.2-48.7-1.1-58.1-24.9-1.5-3.8.1-10.9-5.7-11-4.6-.1-6.3,6-8.5,9.9-22.8,40-12.2,91.9,24.4,120,37.6,28.8,89.8,25.6,123.2-7.7C599.2,533,603,479.6,574.3,442.9ZM505,526.4c-8,.2-13.7-4.5-14-13.2s4.3-13.5,13-13.9,12.8,5.1,14.5,12.8C517.8,520.5,513.2,526.2,505,526.4Z"/><path class="cls-1" d="M574.1,443.1c-16.1-20.4-40.6-34.4-66.6-36.4a4.24,4.24,0,0,0-3.3.8c1,4,4,7.4,6.3,11.4,12.6,22.6,3.6,50.7-19.6,61-22.9,10.2-48.7-1.1-58.1-24.9-4.5-11.4-7.2-14.3-14.7-.6-17.6,32.1-14,74.6,8.7,103.4,62.7,79.4,194.2,9.5,162.1-87.4A86.22,86.22,0,0,0,574.1,443.1ZM505,526.4c-8,.2-13.7-4.5-14-13.2s4.3-13.5,13-13.9,12.8,5.1,14.5,12.8C517.8,520.5,513.2,526.2,505,526.4Z"/></svg>