<svg id="Layer_1" data-name="Layer 1" xmlns="http://www.w3.org/2000/svg" viewBox="0 0 1000 1000"><defs><style>.cls-1{fill:#e41e26;}</style></defs><path class="cls-1" d="M498.8,292.3c95.2.2,179.9,66,202.3,155.6.3,1.3.4,2.7.7,4,1.4,6.2,1.9,12.7-5.9,14.2-6.7,1.3-9.1-4-10.5-9.9-1.5-6.2-3.3-12.3-5.3-18.3-30.2-89-122.5-142.8-215-125.2-6.6,1.2-13.5,2.9-15.1-6.2-1.4-8.3,5.7-9.6,11.4-10.5C474.4,293.9,487.5,291.5,498.8,292.3Z"/><path class="cls-1" d="M503.5,707.8c-98.4.1-180.7-63.9-204.3-156-1.7-6.6-5.3-14.4,4.4-16.9,10-2.6,10.4,6.7,12,12.8,24.2,88.9,101.5,146.4,193.3,143.2,10-.4,19.9-2.1,29.8-3.8,6.1-1.1,10.4,1,11.8,6.3,1.6,6.1-3.1,9.4-8.3,10.4C528.3,706.6,514.3,708.3,503.5,707.8Z"/></svg>