<?xml version="1.0" encoding="utf-8"?>
<!-- Generator: Adobe Illustrator 25.2.0, SVG Export Plug-In . SVG Version: 6.00 Build 0)  -->
<svg version="1.1" id="Layer_1" xmlns="http://www.w3.org/2000/svg" xmlns:xlink="http://www.w3.org/1999/xlink" x="0px" y="0px"
	 viewBox="0 0 550 550" style="enable-background:new 0 0 550 550;" xml:space="preserve">
<style type="text/css">
	.st0{fill:#E41E26;}
</style>
<g>
	<path class="st0" d="M349.3,217.9c-17.3-22-39.7-34.9-71.2-36.1c3.7,6,5.6,9,7.4,12.1c12.6,22.6,3.6,50.7-19.6,61
		c-22.9,10.2-48.7-1.1-58.1-24.9c-1.5-3.8,0.1-10.9-5.7-11c-4.6-0.1-6.3,6-8.5,9.9c-22.8,40-12.2,91.9,24.4,120
		c37.6,28.8,89.8,25.6,123.2-7.7C374.2,308,378,254.6,349.3,217.9z M280,301.4c-8,0.2-13.7-4.5-14-13.2c-0.3-8.6,4.3-13.5,13-13.9
		c8.8-0.4,12.8,5.1,14.5,12.8C292.8,295.5,288.2,301.2,280,301.4z"/>
	<path class="st0" d="M274.4,141.1c-73.1,0.3-133.7,61-133.6,134c0.2,74.1,60.6,134.1,134.8,133.9c73.9-0.3,133.1-59.7,133.1-133.7
		C408.6,200.8,348.6,140.8,274.4,141.1z M266.2,392.1c-62.1-4.3-111.9-60.4-108-121.7c4.2-66,58.8-116.5,121.5-112.5
		c66.8,4.2,116,59,112.1,124.8C388.2,347,331.1,396.7,266.2,392.1z"/>
	<path class="st0" d="M4.5,275.3c1.7-70.8,24.6-131.9,71.8-183.4c2.1-2.3,4.3-4.7,6.7-6.8c3.5-3.2,7.6-3.5,11.1-0.5
		c4.1,3.5,4,8.1,0.6,12.1c-4.9,5.9-10.6,11.3-15.4,17.3C-1.3,214.2,3.1,352.8,89.5,448.2c4.5,5,15.6,10.1,7.2,18.6
		c-9.2,9.2-14.4-2.1-19.3-7.4C28.7,407.1,5.6,344.8,4.5,275.3z"/>
	<path class="st0" d="M545.5,277.8c-0.4,65.8-23.4,125.9-68.6,177.6c-2.4,2.7-4.9,5.3-7.5,8c-4.1,4.2-8.5,7.4-13.9,1.9
		s-1.9-9.8,2.1-14c24.2-25.3,43.4-53.9,54.7-87c33.3-97.4,15.8-185.1-52.2-262.5c-1.8-2.1-3.8-3.9-5.7-5.9c-4-4.2-5.4-8.8-0.7-13
		c4.7-4.3,9.3-2.4,13.1,1.8c7,7.8,14.4,15.3,20.8,23.5C525.8,157.1,545,212.7,545.5,277.8z"/>
	<path class="st0" d="M273.8,67.3c95.2,0.2,179.9,66,202.3,155.6c0.3,1.3,0.4,2.7,0.7,4c1.4,6.2,1.9,12.7-5.9,14.2
		c-6.7,1.3-9.1-4-10.5-9.9c-1.5-6.2-3.3-12.3-5.3-18.3c-30.2-89-122.5-142.8-215-125.2c-6.6,1.2-13.5,2.9-15.1-6.2
		c-1.4-8.3,5.7-9.6,11.4-10.5C249.4,68.9,262.5,66.5,273.8,67.3z"/>
	<path class="st0" d="M278.5,482.8c-98.4,0.1-180.7-63.9-204.3-156c-1.7-6.6-5.3-14.4,4.4-16.9c10-2.6,10.4,6.7,12,12.8
		c24.2,88.9,101.5,146.4,193.3,143.2c10-0.4,19.9-2.1,29.8-3.8c6.1-1.1,10.4,1,11.8,6.3c1.6,6.1-3.1,9.4-8.3,10.4
		C303.3,481.6,289.3,483.3,278.5,482.8z"/>
	<path class="st0" d="M349.3,217.9c-17.3-22-39.7-34.9-71.2-36.1c3.7,6,5.6,9,7.4,12.1c12.6,22.6,3.6,50.7-19.6,61
		c-22.9,10.2-48.7-1.1-58.1-24.9c-1.5-3.8,0.1-10.9-5.7-11c-4.6-0.1-6.3,6-8.5,9.9c-22.8,40-12.2,91.9,24.4,120
		c37.6,28.8,89.8,25.6,123.2-7.7C374.2,308,378,254.6,349.3,217.9z M280,301.4c-8,0.2-13.7-4.5-14-13.2c-0.3-8.6,4.3-13.5,13-13.9
		c8.8-0.4,12.8,5.1,14.5,12.8C292.8,295.5,288.2,301.2,280,301.4z"/>
	<path class="st0" d="M349.1,218.1c-16.1-20.4-40.6-34.4-66.6-36.4c-1.3-0.1-2.3,0-3.3,0.8c1,4,4,7.4,6.3,11.4
		c12.6,22.6,3.6,50.7-19.6,61c-22.9,10.2-48.7-1.1-58.1-24.9c-4.5-11.4-7.2-14.3-14.7-0.6c-17.6,32.1-14,74.6,8.7,103.4
		c62.7,79.4,194.2,9.5,162.1-87.4C360.7,235.5,355.6,226.2,349.1,218.1z M280,301.4c-8,0.2-13.7-4.5-14-13.2
		c-0.3-8.6,4.3-13.5,13-13.9c8.8-0.4,12.8,5.1,14.5,12.8C292.8,295.5,288.2,301.2,280,301.4z"/>
</g>
</svg>
