<?xml version="1.0" encoding="utf-8"?>
<!-- Generator: Adobe Illustrator 26.0.2, SVG Export Plug-In . SVG Version: 6.00 Build 0)  -->
<svg version="1.1" id="Layer_1" xmlns="http://www.w3.org/2000/svg" xmlns:xlink="http://www.w3.org/1999/xlink" x="0px" y="0px"
	 viewBox="0 0 904.3 606.7" style="enable-background:new 0 0 904.3 606.7;" xml:space="preserve">
<style type="text/css">
	.st0{fill:#E41E26;}
</style>
<path class="st0" d="M531.3,164.7c-17.3-22-39.7-34.9-71.2-36.1c3.7,6,5.6,9,7.4,12.1c12.6,22.6,3.6,50.7-19.6,61
	c-22.9,10.2-48.7-1.1-58.1-24.9c-1.5-3.8,0.1-10.9-5.7-11c-4.6-0.1-6.3,6-8.5,9.9c-22.8,40-12.2,91.9,24.4,120
	c37.6,28.8,89.8,25.6,123.2-7.7C556.2,254.8,560,201.4,531.3,164.7z M462,248.2c-8,0.2-13.7-4.5-14-13.2c-0.3-8.6,4.3-13.5,13-13.9
	c8.8-0.4,12.8,5.1,14.5,12.8C474.7,242.3,470.2,248,462,248.2z"/>
<path class="st0" d="M456.4,87.9c-73.1,0.3-133.7,61-133.6,134C323,296,383.4,356,457.6,355.8c73.9-0.3,133.1-59.7,133.1-133.7
	C590.6,147.6,530.6,87.6,456.4,87.9z M448.2,338.9c-62.1-4.3-111.9-60.4-108-121.7c4.2-66,58.8-116.5,121.5-112.5
	c66.8,4.2,116,59,112.1,124.8C570.2,293.8,513.1,343.5,448.2,338.9z"/>
<path class="st0" d="M186.5,222.1c1.7-70.8,24.6-131.9,71.8-183.4c2.1-2.3,4.3-4.7,6.7-6.8c3.5-3.2,7.6-3.5,11.1-0.5
	c4.1,3.5,4,8.1,0.6,12.1c-4.9,5.9-10.6,11.3-15.4,17.3c-80.7,100.2-76.3,238.8,10.1,334.2c4.5,5,15.6,10.1,7.2,18.6
	c-9.2,9.2-14.4-2.1-19.3-7.4C210.7,353.9,187.6,291.6,186.5,222.1z"/>
<path class="st0" d="M727.4,224.6c-0.4,65.8-23.4,125.9-68.6,177.6c-2.4,2.7-4.9,5.3-7.5,8c-4.1,4.2-8.5,7.4-13.9,1.9
	c-5.4-5.5-1.9-9.8,2.1-14c24.2-25.3,43.4-53.9,54.7-87c33.3-97.4,15.8-185.1-52.2-262.5c-1.8-2.1-3.8-3.9-5.7-5.9
	c-4-4.2-5.4-8.8-0.7-13c4.7-4.3,9.3-2.4,13.1,1.8c7,7.8,14.4,15.3,20.8,23.5C707.8,103.9,727,159.5,727.4,224.6z"/>
<path class="st0" d="M455.8,14.1c95.2,0.2,179.9,66,202.3,155.6c0.3,1.3,0.4,2.7,0.7,4c1.4,6.2,1.9,12.7-5.9,14.2
	c-6.7,1.3-9.1-4-10.5-9.9c-1.5-6.2-3.3-12.3-5.3-18.3c-30.2-89-122.5-142.8-215-125.2c-6.6,1.2-13.5,2.9-15.1-6.2
	c-1.4-8.3,5.7-9.6,11.4-10.5C431.4,15.7,444.5,13.3,455.8,14.1z"/>
<path class="st0" d="M460.5,429.6c-98.4,0.1-180.7-63.9-204.3-156c-1.7-6.6-5.3-14.4,4.4-16.9c10-2.6,10.4,6.7,12,12.8
	c24.2,88.9,101.5,146.4,193.3,143.2c10-0.4,19.9-2.1,29.8-3.8c6.1-1.1,10.4,1,11.8,6.3c1.6,6.1-3.1,9.4-8.3,10.4
	C485.3,428.4,471.3,430.1,460.5,429.6z"/>
<path class="st0" d="M352.1,488.6c6.2-0.8,11.7,1.7,17.2,4.1c4.1,1.8,7.3,4.7,5.7,10.2c-1.6,5.3-5.3,5.9-9.8,4.5
	c-9.3-2.9-18.5-4.7-27.7,0.9c-4.6,2.8-8.9,6.3-8.6,12.2c0.3,6.3,5.8,8.3,10.6,9.8c8.2,2.7,16.8,4.2,24.8,7.6
	c11.7,5,18.1,15,17.5,28.8c-0.6,14.6-8.9,24.4-21.1,27.9c-16.3,4.7-31.5-0.4-44.2-12.8c-3.5-3.5-6.3-7.7-1.8-12.7
	c3.9-4.4,7.4-2.1,10.6,1.2c6.9,7.3,15.4,10.2,24.7,10.5c8.8,0.4,15.3-3.5,17.1-13.3c1.7-9.5-3.4-14.9-11.2-17.5
	c-4.7-1.6-9.6-2.9-14.5-4.1c-18.3-4.7-26.7-13-26.5-26.4c0.2-13.9,11.8-26.4,27.8-29.9C345.7,489.2,348.9,489,352.1,488.6z"/>
<path class="st0" d="M668.1,563.3c0-8.3,0.1-16.5,0-24.8c-0.1-3.9,2.5-9.2,6-6.1c6.8,6,10.4,1.5,15.4-0.7c1.9-0.9,4.3-1,6.5-1.4
	c11.7-2.1,19.5,4,27.2,10c6.8-6.9,14.7-11.3,25.9-10.1c12.4,1.3,21.4,8.7,22,20.4c0.7,13.4,0.3,26.8,0.2,40.2c0,2.5,1,5.7-4.1,5.9
	c-5.4,0.2-5.6-2.8-5.6-6.2c0-12.2,0.1-24.4-0.1-36.6c-0.1-10.1-5.1-16.8-17.9-16.5c-12.2,0.3-18,7-18.6,16.7
	c-0.6,12.2-0.1,24.4-0.2,36.6c0,2.6,0.9,5.7-4.2,5.9c-5.2,0.2-5.9-2.3-5.9-6c0.1-12.2,0-24.4-0.1-36.6c-0.1-9.4-4-16.2-16.2-16.7
	c-10.7-0.5-19.5,6.6-20.1,16.9c-0.6,11.4,0,22.8-0.3,34.3c-0.1,3,2.4,7.8-4.4,8c-7.8,0.3-5.4-5-5.5-8.4
	C667.9,579.9,668.1,571.6,668.1,563.3z"/>
<path class="st0" d="M48.1,497c8.5-0.1,17.1-0.3,25.6-0.4c2.4,0,4.8-0.1,7.1,0.8c7.9,3.1,5.6,14.2-3.2,12.9
	c-10.9-1.5-10.2,5.1-10,12.2c0.3,14.5,0.4,29.1,0.1,43.6c-0.3,16.2-9.6,27.5-25.2,31.3c-13.3,3.3-25.6-3.4-33.2-17.8
	c-2.3-4.3-4.4-8.5,0.9-11.8c5.4-3.4,8.8,0.8,10.9,4.6c4.7,8.3,10.3,13.7,20.7,10.4c10.3-3.2,12-11.6,12.2-20.5
	c0.3-14.5-0.3-29.1,0.1-43.6c0.2-6.8-2.6-8.5-8.9-8.1c-8.6,0.5-17.3,0.1-25.9,0.3c-4.6,0.1-8.5-1.3-8.8-6.3c-0.4-6,4-7.5,9-7.5
	C29,497.3,38.5,497.1,48.1,497z"/>
<path class="st0" d="M647.9,587.7c0.4-10.6,0.3-21.3,0.1-31.9c-0.2-11.1-4.5-20.1-17.5-24.3c-13.2-4.3-31.4-1-39.2,7.3
	c-2.8,2.9-8.6,7-3.4,10.6c4.8,3.4,7.1-1.9,9.8-5c7-8.1,17.2-8.2,27.3-6.5c7.3,1.3,11.6,5.8,12.6,12.4c0.8,5.3,0.7,9-7.9,8.5
	c-9.9-0.5-20-1-29.7,2.2c-12.9,4.3-19.1,12.2-17,22.5c1.8,9.2,12.7,15.6,25.9,15.1c10.9-0.4,19.8-4.8,27.8-11
	c2.9,3.1-0.7,10.3,7.7,8.8C650.5,595.4,647.8,590.7,647.9,587.7z M630.1,584.5c-7.2,5.3-15.5,8.6-25.1,6.9c-5.9-1-11.4-3.2-12.1-9.5
	c-0.6-6.1,2-10.7,8.4-13.5c6.8-2.9,14.1-2.7,22.5-2.7c3.7,1.3,11-3.1,13.4,2.3C640.1,574.3,636,580.1,630.1,584.5z"/>
<path class="st0" d="M517,566.6c14.6,0.3,29.2,0.2,43.8,0.1c3.8,0,8.8,1.3,8.3-4.7c-0.9-11.5-4.7-22.2-16.8-28.1
	c-11.7-5.7-24.5-5.9-36.2,0.8c-13.6,7.6-19.3,23.2-15.2,40.1c3,12.5,14.3,22.2,28.7,23.7c17.5,1.8,29.9-4.8,37.5-18.4
	c1.3-4.7-0.5-6.5-6-5.1c-1.7,1.8-3.7,3.4-4.9,5.4c-5.5,8.8-14.3,11.9-25.1,10.6c-11.1-1.3-17.2-7.5-20.2-16.8
	C508.7,568.3,509.8,566.5,517,566.6z M509.6,559.6c2.4-12,7.5-20.7,21.6-22.1c11.3-1.1,20.5,1.8,25.4,11.7c3.3,6.7,3.8,11-7.4,10.6
	C536.6,559.2,523.9,559.6,509.6,559.6z"/>
<path class="st0" d="M823.8,499.9c5,0,10-0.1,15,0c3.9,0.1,7.3,1.3,7.8,5.9c0.4,4.4-2.6,7.8-6.1,7.5c-10.1-0.6-9,5.8-9,12.2
	c0.1,15.4,0.1,30.9,0,46.3c0,5.5-1.1,11.3,7.9,10.1c4.7-0.6,8.4,2.4,7.8,7.2c-0.5,4.2-4.1,6.8-8.9,6.7c-9.5-0.1-19.1,0-28.6,0
	c-4.7,0-8.2-2.4-8.5-7c-0.3-5,3.5-7.4,8.1-6.9c8.6,1,8.2-4.3,8.1-10.1c-0.2-13.6,0.1-27.2-0.1-40.9c-0.1-8.2,3.8-19-11.5-18.1
	c-2.7,0.2-5.4-3.5-4.9-7.2c0.5-3.5,2.9-5.6,6.5-5.7c5.4-0.1,10.9,0,16.4,0C823.8,500,823.8,500,823.8,499.9z"/>
<path class="st0" d="M228.5,577.9c-1,13.7-10.4,18.1-21.8,20.3c-17.4,3.2-33.7-3.7-38-16.4c-1.1-3-3.8-7.4,0.8-9.5
	c4.1-1.9,6.5,1,7.7,5.1c1,3.4,2.2,7,6.2,8.3c10.6,1.7,21.1,2.6,31.1-2.9c10.2-9.2,2.8-14.1-5-17.5c-8.3-3.5-17.4-5.1-25.9-8.1
	c-8.6-3.1-15.8-8.4-15-18.6c0.8-10.4,8.5-15.7,17.8-18.2c16.5-4.4,33.1,1.7,37.9,13.5c1.1,2.6,3.7,6.4,0,8.5c-3.8,2.2-6.3,0-8.3-4.1
	c-6-12.6-17.2-11.8-28.2-9.4c-4.8,1-9.2,4.2-9.3,10.3c0,5.5,4.1,8.1,8.4,9.6c7.7,2.7,15.7,4.4,23.4,7.1
	C220.5,559.6,229.5,564.6,228.5,577.9z"/>
<path class="st0" d="M152.7,559.8c0,10-0.2,20,0.1,30c0.1,6.9-6.8,8.8-8.1,5.6c-4.8-12-8.7-1.9-12.1-0.1c-17.5,9.2-38,0.6-40.6-18.9
	c-2.1-16.1-0.9-32.6-1.2-49c-0.1-3.9,1.5-6,5.6-5.9c4.4,0.2,4.7,3.3,4.7,6.7c0,13.2-0.1,26.4,0,39.6c0.2,14.5,6.2,21.8,18.2,22.4
	c11.6,0.6,22.5-9.2,23.1-22.1c0.6-12.7,0.1-25.5,0.2-38.2c0-3.3-1.5-7.9,4.1-8.4c6.2-0.5,6,3.9,6,8.2
	C152.7,539.8,152.7,549.8,152.7,559.8z"/>
<path class="st0" d="M874.4,505c0.1,2.9,0.7,5.8,0.3,8.6c-0.9,8,0.2,13.9,11.8,12c2.7-0.4,7-1.3,7.4,3.2c0.4,5.1-4,5-7.5,4.5
	c-11.7-2-12.3,3.9-11.8,11.9c0.5,8.6,0.3,17.3,0.1,25.9c-0.2,8.2-1.1,16.5,12.7,14.8c2.5-0.3,4.5,0.6,4.7,3.2c0.3,3.3-1.9,3.7-5,4.2
	c-14.1,2.1-21.6-3.2-22.1-16.5c-0.4-11.5-0.3-23,0-34.5c0.1-5.6-0.2-9.9-8.4-8.9c-3.2,0.4-6.7,0.2-6.8-3.9c-0.1-4.5,3.7-4.1,6.7-3.8
	c8.1,0.9,8.5-3.3,8.5-8.9C865.1,507.9,865.5,507.9,874.4,505z"/>
<path class="st0" d="M254.9,558.4c0-5.4-0.2-10.9,0-16.3c0.3-7.1,1-14.1-9.9-12c-2.7,0.5-5.7-0.1-6.1-3.7c-0.4-3.5,1.9-5.2,4.9-4.7
	c10.7,1.8,12.1-4.1,11.1-12.6c-0.6-4.8,0-10.3,5.9-10c6.2,0.4,3.2,6.7,2.9,9.8c-1.1,10,2,14.5,12.6,12.8c2.9-0.5,7.1-0.9,7.2,3.8
	c0.1,5.5-4.4,5.1-7.9,4.6c-9.6-1.4-12.5,2.6-11.8,11.9c0.8,10.8,0.3,21.8,0.1,32.7c-0.1,8.1,0.9,14.8,11.6,13.7
	c3.1-0.3,6.8-0.4,6.4,4.5c-0.4,3.9-3.5,3.2-6.2,3.5c-14.9,1.7-20.7-3.4-20.9-18.9C254.8,571.1,254.9,564.7,254.9,558.4z"/>
<path class="st0" d="M404.3,563.6c0-4.3-0.1-8.7,0-13c0.2-6.3,1.6-13.3-10.4-11.4c-3,0.5-5.3-0.8-5.3-3.9c0-3.4,2.8-3.9,5.6-3.4
	c10.7,1.6,10.7-4.3,10.1-10.6c-0.4-4.2,0.1-9,5.8-9c6.4,0.1,3.3,5.6,3.1,8.2c-0.7,8.1,1,13.1,12.2,11.4c2.7-0.4,6.9-1.3,7.3,3
	c0.4,3.9-2.9,4.8-6.2,4.2c-12.6-2.1-14,3.7-13.2,12.5c0.8,8.2,0.4,16.6,0.1,24.8c-0.3,8,0.6,14.5,12.9,13.2c2.9-0.3,5.5,0.6,5.3,3.8
	c-0.2,2.5-2.5,2.7-4.8,3.1c-13.9,2.5-21.8-2.8-22.3-15.3C404.1,575.4,404.3,569.5,404.3,563.6z"/>
<path class="st0" d="M448.8,563.6c0-8.6,0.2-17.3-0.1-25.9c-0.1-5.6,5.7-8.4,7.6-4.8c4.9,9,7.8,2.2,11.4,0.2c4-2.2,8.3-3.3,12.9-2.9
	c4.5,0.4,11.4-1.8,11.2,5.1c-0.2,7.5-6.6,2.8-10.2,2.9c-12.2,0.2-21.4,7.6-22.4,19.6c-0.9,10.6-0.4,21.2-0.5,31.8
	c0,3.6,0.5,7.4-5.9,7.1c-6-0.4-4-4.4-4-7.1C448.7,580.9,448.8,572.3,448.8,563.6z"/>
<path class="st0" d="M531.3,164.7c-17.3-22-39.7-34.9-71.2-36.1c3.7,6,5.6,9,7.4,12.1c12.6,22.6,3.6,50.7-19.6,61
	c-22.9,10.2-48.7-1.1-58.1-24.9c-1.5-3.8,0.1-10.9-5.7-11c-4.6-0.1-6.3,6-8.5,9.9c-22.8,40-12.2,91.9,24.4,120
	c37.6,28.8,89.8,25.6,123.2-7.7C556.2,254.8,560,201.4,531.3,164.7z M462,248.2c-8,0.2-13.7-4.5-14-13.2c-0.3-8.6,4.3-13.5,13-13.9
	c8.8-0.4,12.8,5.1,14.5,12.8C474.7,242.3,470.2,248,462,248.2z"/>
<path class="st0" d="M531.3,164.7c-17.3-22-39.7-34.9-71.2-36.1c3.7,6,5.6,9,7.4,12.1c12.6,22.6,3.6,50.7-19.6,61
	c-22.9,10.2-48.7-1.1-58.1-24.9c-1.5-3.8,0.1-10.9-5.7-11c-4.6-0.1-6.3,6-8.5,9.9c-22.8,40-12.2,91.9,24.4,120
	c37.6,28.8,89.8,25.6,123.2-7.7C556.2,254.8,560,201.4,531.3,164.7z M462,248.2c-8,0.2-13.7-4.5-14-13.2c-0.3-8.6,4.3-13.5,13-13.9
	c8.8-0.4,12.8,5.1,14.5,12.8C474.7,242.3,470.2,248,462,248.2z"/>
</svg>
