<svg id="Layer_1" data-name="Layer 1" xmlns="http://www.w3.org/2000/svg" viewBox="0 0 1000 1000"><defs><style>.cls-1{fill:#e41e26;}</style></defs><path class="cls-1" d="M229.5,500.3c1.7-70.8,24.6-131.9,71.8-183.4a85.86,85.86,0,0,1,6.7-6.8c3.5-3.2,7.6-3.5,11.1-.5,4.1,3.5,4,8.1.6,12.1-4.9,5.9-10.6,11.3-15.4,17.3-80.6,100.2-76.2,238.8,10.2,334.2,4.5,5,15.6,10.1,7.2,18.6-9.2,9.2-14.4-2.1-19.3-7.4C253.7,632.1,230.6,569.8,229.5,500.3Z"/><path class="cls-1" d="M770.5,502.8c-.4,65.8-23.4,125.9-68.6,177.6-2.4,2.7-4.9,5.3-7.5,8-4.1,4.2-8.5,7.4-13.9,1.9s-1.9-9.8,2.1-14c24.2-25.3,43.4-53.9,54.7-87q50-146.1-52.2-262.5c-1.8-2.1-3.8-3.9-5.7-5.9-4-4.2-5.4-8.8-.7-13s9.3-2.4,13.1,1.8c7,7.8,14.4,15.3,20.8,23.5C750.8,382.1,770,437.7,770.5,502.8Z"/></svg>